<svg id="Camada_1" data-name="Camada 1" xmlns="http://www.w3.org/2000/svg" viewBox="0 0 280.1 240.5"><defs><style>.cls-1{fill:#fff;}</style></defs><path class="cls-1" d="M220.9,189.55a99.38,99.38,0,0,1-30.79,20.91L189,211a13.49,13.49,0,0,1-4.75-3.21l-.26-.25c-2.69-2.57-5.77-5.39-11.8-5.39s-9.24,2.82-11.93,5.39a20.72,20.72,0,0,1-3.08,2.56h0a10.06,10.06,0,0,1-5.39,1.54,9.86,9.86,0,0,1-6.15-2.05c-.77-.64-1.54-1.28-2.44-2.05-2.69-2.57-5.77-5.39-11.93-5.39a15.85,15.85,0,0,0-6.41,1.28h0a24.17,24.17,0,0,0-5.52,4c-2,1.92-3.72,3.46-6.67,4h0c-.64-.25-1.15-.51-1.8-.77-2.56-1.15-5.26-2.43-7.69-3.72a99.13,99.13,0,0,1-8.85-5.25A97.52,97.52,0,0,1,81,190.83l.89-.9c2.57-2.31,4.49-4.1,8.47-4.1s6,1.79,8.59,4.1,5.78,5.39,11.81,5.39H111a16.22,16.22,0,0,0,5.52-1,18.49,18.49,0,0,0,6.16-4.36c2.56-2.31,4.49-4.1,8.46-4.1s6,1.79,8.47,4.1c2.69,2.44,5.77,5.39,11.93,5.39s9.23-2.82,11.93-5.39,4.49-4.1,8.46-4.1,6,1.79,8.47,4.1c.51.51,1,.9,1.54,1.41a14.27,14.27,0,0,0,10.39,4c6.16,0,9.11-2.82,11.93-5.39,2.44-2.31,4.49-4.1,8.47-4.1a8.91,8.91,0,0,1,6.54,2.43h0A8.46,8.46,0,0,1,220.9,189.55Z"/><path class="cls-1" d="M60.81,76.79a.28.28,0,0,0-.26-.26h-4a.27.27,0,0,0-.25.26L51.83,90.9v.26h3.33a.28.28,0,0,0,.26-.26L55.93,89a.13.13,0,0,1,.13-.13h4.75a.12.12,0,0,1,.12.13l.52,1.92a.28.28,0,0,0,.25.26h3.21c.13,0,.26,0,.26-.26h0ZM60,86.41H57c-.13,0-.13,0-.13-.13l1.54-5.38,1.54,5.38C60.16,86.41,60.16,86.41,60,86.41Zm.89-13.72H58.37a.5.5,0,0,0-.39.12l-1,2.06v.25l.13.13h2c.13,0,.25,0,.25-.13l1.54-2.05v-.13C61.06,72.81,61.06,72.69,60.93,72.69Z"/><path class="cls-1" d="M70,80a2.36,2.36,0,0,1,1.54-.64,2.21,2.21,0,0,1,1.54.51,2,2,0,0,1,.64,1.41.13.13,0,0,0,.13.13l.13.13h3c.13,0,.13,0,.13-.13v-.26a5.37,5.37,0,0,0-.64-2.44,4.73,4.73,0,0,0-2.06-1.79,7.47,7.47,0,0,0-3-.64,7.55,7.55,0,0,0-3,.64,5.13,5.13,0,0,0-1.92,1.79,5.45,5.45,0,0,0-.77,2.83v4.23a5.42,5.42,0,0,0,.77,2.82,6.92,6.92,0,0,0,1.92,1.93,5.9,5.9,0,0,0,3,.64,7.65,7.65,0,0,0,3-.64A4.7,4.7,0,0,0,77,85.9V83.2a.28.28,0,0,0-.26-.25H71.32a.28.28,0,0,0-.25.25h0v2.31a.28.28,0,0,0,.25.26h2.06c.13,0,.13,0,.13.13v.64a1.78,1.78,0,0,1-1.93,1.92,2.69,2.69,0,0,1-1.67-.64,2.44,2.44,0,0,1-.64-1.67V81.67A6.75,6.75,0,0,1,70,80Z"/><path class="cls-1" d="M90.05,76.66l-.13-.13H87c-.12,0-.12,0-.12.13l-.13.13v9.36a1.72,1.72,0,0,1-.64,1.54,2.12,2.12,0,0,1-1.54.65A1.84,1.84,0,0,1,83,87.69a1.77,1.77,0,0,1-.52-1.54V76.79c0-.13,0-.13-.12-.13l-.13-.13h-3a.13.13,0,0,0-.13.13l-.13.13v9.36a5.07,5.07,0,0,0,2.69,4.49,6.8,6.8,0,0,0,5.91,0,4.27,4.27,0,0,0,1.92-1.79,5.09,5.09,0,0,0,.77-2.7V76.79C90.18,76.79,90.18,76.66,90.05,76.66Z"/><path class="cls-1" d="M100.06,76.79a.28.28,0,0,0-.26-.26h-4a.28.28,0,0,0-.26.26L91.08,90.9v.26h3.46a.28.28,0,0,0,.26-.26L95.31,89a.13.13,0,0,1,.13-.13h4.75a.13.13,0,0,1,.13.13l.51,1.92a.28.28,0,0,0,.25.26h3.21c.13,0,.26,0,.26-.26h0Zm-.64,9.62H96.34a.13.13,0,0,1-.13-.13l1.54-5.38,1.54,5.38C99.55,86.41,99.55,86.41,99.42,86.41Z"/><path class="cls-1" d="M122.89,78.71A4.78,4.78,0,0,0,121,77.05a5.34,5.34,0,0,0-2.82-.52h-5.39a.13.13,0,0,0-.13.13V91h5.52a7,7,0,0,0,2.82-.51A5.71,5.71,0,0,0,122.89,89a4.06,4.06,0,0,0,.64-2.44V81.15A5.25,5.25,0,0,0,122.89,78.71ZM120.07,86a2,2,0,0,1-1.92,2.18h-2.06a.12.12,0,0,1-.12-.13V79.61s0-.13.12-.13h2.18a1.64,1.64,0,0,1,1.42.65,2.47,2.47,0,0,1,.51,1.54Z"/><path class="cls-1" d="M128.92,79.61h6.67V76.79l-.13-.13h-9.87a.13.13,0,0,0-.13.13l-.13.13V91c0,.13,0,.13.13.13h10.13v-2.7h-6.67c-.13,0-.13,0-.13-.12V85.51a.12.12,0,0,1,.13-.12h4.23a.28.28,0,0,0,.26-.26h0V82.69a.13.13,0,0,0-.13-.13h-4.36a.13.13,0,0,1-.13-.13h0l.13-2.82Z"/><path class="cls-1" d="M70.68,98,64.91,109.5,59.14,98H50.93v28.86h8.21V111.68L65,123.23l5.9-11.55v15.14h8.21V98Z"/><path class="cls-1" d="M93,97.32c-7.31,0-11.41,3.84-11.41,9v20.53h8.33v-8.21h6.29V127h8.34V106.42C104.42,101.16,100.19,97.32,93,97.32Zm3.08,14.62H89.8v-5.13c0-1.29,1-2.44,3.2-2.44s3.21,1,3.21,2.44v5.13Z"/><polygon class="cls-1" points="125.07 120.28 125.07 126.82 106.99 126.82 106.99 97.96 115.45 97.96 115.45 120.28 125.07 120.28"/><path class="cls-1" d="M232.83,175.31a111.71,111.71,0,0,1-9,11.29,11.54,11.54,0,0,0-1.29-1.16,14,14,0,0,0-9.62-3.33c-6.15,0-9.23,2.82-11.93,5.38s-4.49,4.11-8.46,4.11a8.88,8.88,0,0,1-6.55-2.44c-.64-.51-1.28-1.15-1.92-1.67-2.69-2.43-5.77-5.38-11.8-5.38s-9.24,2.82-11.93,5.38-4.49,4.11-8.47,4.11-6-1.8-8.46-4.11c-2.7-2.43-5.78-5.38-11.93-5.38s-9.11,2.82-11.93,5.38c-2.44,2.31-4.36,4.11-8.47,4.11h-.38c-3.85-.13-5.78-1.92-8.21-4.11a21.25,21.25,0,0,0-3.08-2.56,13.64,13.64,0,0,0-8.85-2.69c-6.16,0-9.24,2.82-11.93,5.38l-.39.39h0a97.84,97.84,0,0,1-10.39-12.7,13.77,13.77,0,0,0,2.31.13c6.16,0,9.11-2.83,11.8-5.39,2.57-2.31,4.49-4.11,8.47-4.11s6,1.8,8.59,4.11,5.77,5.39,11.8,5.39,9.24-2.83,11.93-5.39c2.57-2.31,4.49-4.11,8.47-4.11s6,1.8,8.47,4.11c2.69,2.44,5.77,5.39,11.93,5.39s9.23-2.83,11.93-5.39,4.49-4.11,8.46-4.11,6,1.8,8.47,4.11c2.69,2.44,5.77,5.39,11.93,5.39s9.11-2.83,11.93-5.39c2.05-1.93,3.85-3.59,6.8-4a7.15,7.15,0,0,1,1.66-.13c4,0,6,1.8,8.47,4.11s5.26,4.87,10.52,5.26Z"/><path class="cls-1" d="M184.47,212.64a96.65,96.65,0,0,1-34.13,5.9,100.18,100.18,0,0,1-32.45-5.39,23.34,23.34,0,0,0,4.87-3.72c2.31-2.05,4.11-3.72,7.32-4.1a3.48,3.48,0,0,0,1.15-.13,10.39,10.39,0,0,1,6.67,2.43h0a22.85,22.85,0,0,1,1.8,1.67c2.69,2.44,5.77,5.39,11.93,5.39,5.9,0,8.85-2.57,11.41-5l.39-.39c2.44-2.31,4.49-4.1,8.46-4.1a10.1,10.1,0,0,1,7.57,3.33c.26.26.64.52.9.77A23.28,23.28,0,0,0,184.47,212.64Z"/><path class="cls-1" d="M163.36,150.36c2.44-2.31,4.69-3.91,8.66-3.91s6,1.79,8.47,4.1c2.69,2.57,5.77,5.39,11.93,5.39s9.11-2.82,11.93-5.39c2.44-2.31,4.49-4.1,8.46-4.1a9.86,9.86,0,0,1,7.19,3,11.36,11.36,0,0,0,1.28,1.15l.51.51c2.57,2.31,5.65,4.88,11.42,4.88a15.64,15.64,0,0,0,10.9-4.36l.9-.9a.13.13,0,0,0,.13-.13l.13-.26A101.44,101.44,0,0,1,235.65,171a4.77,4.77,0,0,0-.51.89h-1.8c-4.11,0-6-1.79-8.47-4.1a17.87,17.87,0,0,0-7.69-4.87,17.19,17.19,0,0,0-3.6-.52h-.64c-6.15,0-9.23,2.82-11.93,5.39-2.56,2.31-4.49,4.1-8.46,4.1s-6-1.79-8.47-4.1c-2.69-2.57-5.77-5.39-11.8-5.39s-9.24,2.82-11.93,5.39c-2.57,2.31-4.49,4.1-8.47,4.1s-5.9-1.66-8.46-4c-2.7-2.57-5.78-5.39-11.93-5.39s-9.11,2.82-11.8,5.39c-2.44,2.31-4.49,4.1-8.47,4.1s-6-1.79-8.47-4.1c-2.69-2.57-5.77-5.39-11.93-5.39s-9.11,2.82-11.93,5.39c-2.43,2.31-4.36,4.1-8.46,4.1a9.64,9.64,0,0,1-5.52-1.66l-1.15-1.93v-.13l-.13-.13a100.14,100.14,0,0,1-8.85-20.52,16.67,16.67,0,0,1,3.72,3c2.69,2.57,5.77,5.39,11.93,5.39s9.1-2.82,11.8-5.39c2.56-2.31,4.49-4.1,8.46-4.1s6,1.79,8.6,4.1c2.69,2.57,5.77,5.39,11.8,5.39s9.24-2.82,11.93-5.39c2.57-2.31,4.49-4.1,8.47-4.1a9.48,9.48,0,0,1,6.28,2.18,15,15,0,0,0,1.29,1L137,159a4.19,4.19,0,0,0,.77,3.46A3.89,3.89,0,0,0,141,164h18.73a3.86,3.86,0,0,0,3.2-1.54,4.51,4.51,0,0,0,.9-3.59l-1.66-7.44"/><rect class="cls-1" x="127.51" y="97.96" width="8.21" height="28.99"/><path class="cls-1" d="M244,145.48a15.11,15.11,0,0,1-10.91,4.36c-5.77,0-8.85-2.57-11.41-4.88,3.07-9.49,4.61-30.33,4.74-40.33H187.67l-5.26,3.2c-.51,1-1.15,2.57-2,2.7a37,37,0,0,1-7.44,0c-1.15-.13-2.95-.13-2.82-2.44,0-.38-.9-.9-1.41-1.15a21.8,21.8,0,0,0-3.72-2.18,6.14,6.14,0,0,0-4-.65,3.84,3.84,0,0,0-2.18,2.83c-.38,2-.9,4.49,1.41,6.15a3.94,3.94,0,0,1,.9,2.57c.13,2.69,0,5.13,0,7.82s-1.54,4.24-4.36,4.24h-2l-1.42,0h0c-2.34,0-4.64-.08-6.94-.09h-1.29c-4.74.38-6.15-.9-6.15-5.65,0-1.92-.13-4,0-5.9a13.69,13.69,0,0,1,.89-2.43c2.19-1.8,2.06-4.37,2.19-6.93a60.47,60.47,0,0,1,.77-6.8c1.28-7,6.79-12.19,14.36-13.21,3.59-.52,7.44,0,10.65-2.7,1.15-.89,2.31-1.28,2.31-3.07,0-.77,1.41-1.54,2.05-2.31l-3.08-4c-4.49.77-9,1.67-13.47,2.31a3.89,3.89,0,0,1-2.69-.26,4.36,4.36,0,0,1-2.18-5.77,4.18,4.18,0,0,1,5.13-2.57c4.49.77,8.85,1.54,13.47,2.31a6.89,6.89,0,0,1,6.8-4.87c3.46,0,5.51,2,6.67,4.87,4.49-.77,9-1.54,13.34-2.31,2.05-.38,4.23-.25,5,1.8a7.11,7.11,0,0,1,.13,4.87c-.64,2.06-2.69,2.31-4.62,2.06-4.49-.77-9.11-1.54-13.47-2.31l-3.59,4.62c2.18-.26,2.69.77,2.69,2.56a2.91,2.91,0,0,0,1,1.67c1.8,1.28,3.72,2.31,5.65,3.46h36.3A99.51,99.51,0,0,0,138.54,5.21a109.86,109.86,0,0,1,11.16-.64s15.86-.05,30.66,4.49c19.22,5.9,50.52,30.29,62.94,68.88C252.74,107.27,247.49,133.08,244,145.48Z"/><path class="cls-1" d="M68.12,190.06,66.45,188h-.26L57,191.86s-.13,0-.13.12v.13l1.41,1.67c0,.13.13.13.26,0l1.15-.51h.13l2,2.43v.13l-.77,1c0,.13,0,.13.13.13l1.41,1.66h.13l5.39-8.46ZM65,191l-2.18,3.2h-.13l-1.28-1.66h0v-.13L65,191Z"/><path class="cls-1" d="M73.89,196.35l-2.57-2.57h-.25l-6.8,6.67v.26l2.56,2.69a4.18,4.18,0,0,0,2.31,1.28,2.32,2.32,0,0,0,2.18-.77,2.38,2.38,0,0,0,.77-2.56h0a2,2,0,0,0,2.18-.64,2.55,2.55,0,0,0,.9-2.06A4.18,4.18,0,0,0,73.89,196.35Zm-4,5.77c-.25.25-.51.38-.77.25s-.51-.25-.77-.51l-1-1v-.13l1.28-1.29h.13l1,1a1.13,1.13,0,0,1,.38.77A.79.79,0,0,1,69.91,202.12Zm2.7-2.82c-.13.25-.52.25-.77.25a1,1,0,0,1-.77-.51l-1-1v-.13l1.28-1.28h.13l1,1a1.07,1.07,0,0,1,.38.77A1.24,1.24,0,0,1,72.61,199.3Z"/><path class="cls-1" d="M81.46,203.27l-2-1.79h-.26l-8.6,5.26a.12.12,0,0,0-.12.12V207l1.66,1.41h.26l1.16-.64h.12l2.44,2.05v.13l-.51,1.16h0c0,.13,0,.25.13.25l1.66,1.42h.26l4-9.24C81.46,203.4,81.46,203.4,81.46,203.27ZM77,208.15h0l-1.67-1.41h.13l3.21-2.06Z"/><path class="cls-1" d="M80.05,214.56a2.47,2.47,0,0,1-.39-1.67,3.15,3.15,0,0,1,.52-1.54l.12-.25h.26l1.54,1.15.13.13v.13l-.13.13a1.1,1.1,0,0,0-.13.89,2,2,0,0,0,.77,1,.79.79,0,0,0,.9.26,1,1,0,0,0,.64-.26c.13-.13.13-.26.13-.51a1,1,0,0,0-.26-.52c-.13-.12-.25-.51-.51-.76l-.13-.13-.13-.13a9.23,9.23,0,0,1-.9-1.41,3,3,0,0,1-.38-1.41,2.47,2.47,0,0,1,.51-1.54,2.55,2.55,0,0,1,1.29-1,3.57,3.57,0,0,1,1.66,0,4.06,4.06,0,0,1,1.67.77,4.47,4.47,0,0,1,1.28,1.41A2.65,2.65,0,0,1,88.9,211a3.76,3.76,0,0,1-.51,1.67l-.13.13s-.13,0-.13.12H88l-1.54-1.15v-.26l.13-.13a1,1,0,0,0,.13-1,2,2,0,0,0-.77-1,1.87,1.87,0,0,0-.9-.25.69.69,0,0,0-.64.38.76.76,0,0,0-.13.51.94.94,0,0,0,.26.64,8,8,0,0,0,.77,1.16c.38.51.64,1,.89,1.41a2.44,2.44,0,0,1,.39,1.28,2.47,2.47,0,0,1-.51,1.54,2.55,2.55,0,0,1-1.29,1,3.58,3.58,0,0,1-1.66,0,6.24,6.24,0,0,1-3.08-2.44Z"/><path class="cls-1" d="M97.75,214.82V215l-.9,1.41-.13.13H96.6l-2.06-1.29h-.13l-4,6.54a.13.13,0,0,1-.13.13h-.13l-1.67-1-.12-.13v-.13l4-6.54v-.13h0l-2-1.28-.13-.13v-.13l.9-1.41a.13.13,0,0,1,.13-.13h.13l6.41,4Z"/><path class="cls-1" d="M105.19,218.54l-5.9-2.95h-.13a.13.13,0,0,0-.13.13l-4.36,8.46v.13a.13.13,0,0,0,.13.13l5.9,2.95h.13a.13.13,0,0,0,.13-.13l.77-1.54v-.13a.13.13,0,0,0-.13-.13l-4-2.05v-.13l.9-1.66h.13l2.56,1.28h.13a.13.13,0,0,0,.13-.13l.77-1.54v-.13a.13.13,0,0,0-.13-.13l-2.56-1.28,4.87.39-4.87-.39.77-1.54h.12l4,1.93h.26l.77-1.54c-.26.13-.26.13-.26,0Zm-1,1.67Z"/><path class="cls-1" d="M104.55,228.67a3.88,3.88,0,0,1-.77-1.67,3.31,3.31,0,0,1,.26-1.92l1.15-2.82a3.53,3.53,0,0,1,1.15-1.54,2.69,2.69,0,0,1,1.67-.64,4,4,0,0,1,2,.38,4.75,4.75,0,0,1,1.67,1.16,2.91,2.91,0,0,1,.52,3.33.13.13,0,0,1-.13.13H112l-1.93-.64c-.12,0-.12-.13-.12-.26a1.3,1.3,0,0,0-.52-1.79.41.41,0,0,1-.25-.13,1.35,1.35,0,0,0-1.8.64.13.13,0,0,1-.13.13L106.09,226a1.74,1.74,0,0,0,0,1.15,1.48,1.48,0,0,0,.77.77,1.3,1.3,0,0,0,1.79-.64v-.13c0-.13.13-.13.26-.13h0l1.8.9a.12.12,0,0,1,.12.13v.13a3.14,3.14,0,0,1-1.15,1.41,3.86,3.86,0,0,1-1.67.64,5.94,5.94,0,0,1-2.05-.38A9.43,9.43,0,0,1,104.55,228.67Z"/><path class="cls-1" d="M112,231.88v-.13l3.08-9.11a.13.13,0,0,1,.13-.13h.12l1.93.65s.13,0,.13.12v.13l-3.08,9.11a.13.13,0,0,1-.13.13H114l-2.05-.77Z"/><path class="cls-1" d="M125.33,225.46l1.92.52a.13.13,0,0,1,.13.13v.12l-2.44,9.24s0,.13-.12.13h-.13l-1.93-.51a.12.12,0,0,1-.12-.13v-.13l1.41-5.52h0l-1.67,1.54h-.26l-.77-.13a.12.12,0,0,1-.13-.12l-.64-2.18h0l-1.66,5.51c0,.13-.13.13-.26.13l-1.93-.51a.12.12,0,0,1-.12-.13v-.13l2.43-9.24a.12.12,0,0,1,.13-.12h.13l1.92.51a.13.13,0,0,1,.13.13l1.16,3.46s0,.13.13,0l2.69-2.44C125.2,225.59,125.33,225.46,125.33,225.46Z"/><path class="cls-1" d="M135.72,229.44h-.13l-4.36-.77a.13.13,0,0,0-.13.13l-.25,1.67v.13l2.82.51a.13.13,0,0,1,.13.13v.13l-.26,1.66a.13.13,0,0,1-.13.13h-.13l-2.82-.51h-.13l-.25,1.79v.13l4.36.77a.13.13,0,0,1,.13.13v.13l-.13,1.79a.13.13,0,0,1-.13.13h-.13l-6.54-1.15h-.13v-.13l1.54-9.36a.13.13,0,0,1,.13-.13h.13l6.54,1.15a.13.13,0,0,1,.13.13v.13l-.26,1.28Z"/><path class="cls-1" d="M143.16,228.29h0l2.05.13s.13,0,.13.12v.13l-.77,9.49v.13h-.13l-1.92-.13c-.13,0-.13,0-.13-.12l-2.82-5.65h0l-.39,5.26a.12.12,0,0,1-.12.13l-2.06-.13h-.13v-.13l.77-9.49a.13.13,0,0,1,.13-.13h.13l1.92.13c.13,0,.13,0,.13.13l2.7,5.64h.13l.38-5.26Z"/><path class="cls-1" d="M154.58,228.54h0v1.93h-2.7V238c0,.12-.13.12-.13.12h-2.18v-7.69h-2.69v-1.93h7.7Z"/><path class="cls-1" d="M163.43,231.37a3.08,3.08,0,0,0-.64-1.8,4,4,0,0,0-1.41-1.15,3.8,3.8,0,0,0-2.06-.26,3.47,3.47,0,0,0-1.92.64,2.78,2.78,0,0,0-1.28,1.41,5.08,5.08,0,0,0-.39,1.93L156,235a3.75,3.75,0,0,0,.64,1.92A4.08,4.08,0,0,0,158,238a3.84,3.84,0,0,0,2.05.25,3.15,3.15,0,0,0,1.93-.64,2.82,2.82,0,0,0,1.28-1.41,3.39,3.39,0,0,0,.26-1.92ZM161,235.6a1.57,1.57,0,0,1-1,.51,2.1,2.1,0,0,1-1.15-.38,1.62,1.62,0,0,1-.51-1.16l-.26-2.95a1.21,1.21,0,0,1,.26-1.15,1.56,1.56,0,0,1,1-.52,2.07,2.07,0,0,1,1.16.39,1.65,1.65,0,0,1,.51,1.15l.26,2.95A1.23,1.23,0,0,1,161,235.6Z"/><path class="cls-1" d="M190.62,228.29l-1.15-3.47a2.7,2.7,0,0,0-1-1.41,3.31,3.31,0,0,0-1.54-.64A4.9,4.9,0,0,0,185,223l-3.46,1.15a.13.13,0,0,0-.13.13v.13l3,9.11a.12.12,0,0,0,.13.12h.12l3.47-1.15a2.8,2.8,0,0,0,1.66-1,3.22,3.22,0,0,0,.9-1.41A2.13,2.13,0,0,0,190.62,228.29Zm-2.31,1.41c-.12.25-.38.64-.77.64l-1.41.51h0l-1.79-5.39v-.12l1.41-.52a1,1,0,0,1,1,.13c.39.26.65.51.65.9l.89,2.82A1.41,1.41,0,0,1,188.31,229.7Z"/><path class="cls-1" d="M197.17,220.21h0L193.06,222v.13l.64,1.54s0,.13.13,0l2.57-1.16h.12a.13.13,0,0,1,.13.13l.64,1.54v.13s0,.13-.12.13l-2.57,1.15s-.13,0,0,.13l.77,1.67h.13l4.1-1.8h.13a.13.13,0,0,1,.13.13l.64,1.54v.13a.13.13,0,0,1-.13.13l-6.16,2.69h-.12a.13.13,0,0,1-.13-.13l-3.72-8.72v-.13a.13.13,0,0,1,.13-.13l6.15-2.56h.13a.13.13,0,0,1,.13.13l.39,1.54Z"/><path class="cls-1" d="M214.35,208h-.25l-2.18,1.54c-.13,0-.13.13-.13.25l3.08,9.5a.13.13,0,0,0,.13.13h.12l1.8-1.29c.13,0,.13-.13.13-.25l-.39-1.29v-.12l2.57-1.93h.13l1,.77h0a.18.18,0,0,0,.26,0l1.8-1.28h0Zm3.47,5.51-1.67,1.16h0l-1.28-3.59h0l2.95,2.43Zm-4.62-7.95h-.13l-1.41,1c-.13,0-.13.13-.13.25l.26,1.54v.13h.26l1.15-.77c.13,0,.13-.13.13-.25v-1.93C213.2,205.71,213.2,205.58,213.2,205.58Z"/><path class="cls-1" d="M228.21,207.12a2.73,2.73,0,0,0-.9-1.67L226,204h-.26L223,206.35v.26l1,1.15h.25l1-.9-.26,2.31-.26,2.44a5.11,5.11,0,0,0,1.67-1,4.11,4.11,0,0,0,1.29-1.66A1.92,1.92,0,0,0,228.21,207.12Zm-2.44,0-.26-.26-.25,2.31c.13,0,.13-.12.25-.12a1.32,1.32,0,0,0,.52-.9A.93.93,0,0,0,225.77,207.12Zm-1.41,2.18a1.59,1.59,0,0,1-1-.51l-1.92-2.31a1.55,1.55,0,0,1-.39-1.15,1.58,1.58,0,0,1,.52-1,1.43,1.43,0,0,1,1-.39,1.28,1.28,0,0,1,.9.52h.26l1.54-1.29V203h0a2.44,2.44,0,0,0-1.41-.9,4.2,4.2,0,0,0-1.8,0,4.66,4.66,0,0,0-1.79.9,3.84,3.84,0,0,0-1.16,1.66,4.35,4.35,0,0,0-.26,1.8,3.5,3.5,0,0,0,.9,1.8l1.93,2.18a4.39,4.39,0,0,0,1.54,1.15,2.89,2.89,0,0,0,1.79.13l.26-2.57h0A1.91,1.91,0,0,1,224.36,209.3Z"/><path class="cls-1" d="M232.44,205.07a2.83,2.83,0,0,1-1.79.13,3.3,3.3,0,0,1-1.67-1l-4.49-4.49v-.26L225.9,198h.26l4.49,4.49a1.56,1.56,0,0,0,1,.52,1.17,1.17,0,0,0,1-.52,1.46,1.46,0,0,0,.38-1,1.18,1.18,0,0,0-.51-1L228.08,196v-.26l1.41-1.41h.26l4.49,4.49a3.69,3.69,0,0,1,1,1.67,2.94,2.94,0,0,1-.12,1.8,3.93,3.93,0,0,1-1.16,1.66A3.47,3.47,0,0,1,232.44,205.07Z"/><path class="cls-1" d="M243.73,192.88,234.49,189h-.25l-1.67,2.06v.25l5.39,8.47a.13.13,0,0,0,.13.13.12.12,0,0,0,.12-.13l1.41-1.67v-.26l-.76-1.15v-.13l2-2.44H241l1.15.52h.13l1.41-1.67h0v-.13Zm-4.62.64-1.41,1.54h0l-2-3.2,3.46,1.66Z"/><path class="cls-1" d="M157.09,149.53a.27.27,0,0,1,.12,0A.13.13,0,0,1,157.09,149.53Zm3,8.72-1.41-6.16L158,149.4v-.13L154.77,129l-1.42,0h0c-2.34,0-4.64-.08-6.94-.09l-3.85,20.27-.07.4-.32,1.65-1.54,7.44A1.43,1.43,0,0,0,142,160.3h16.54C159.58,160.3,160.22,159.53,160.09,158.25Z"/><path class="cls-1" d="M153.31,129c-2.34,0-4.64-.08-6.94-.09Z"/><path class="cls-1" d="M157.21,149.56c-.08,0-.24-.09,0,0Z"/><path class="cls-1" d="M249.12,179.54a3.13,3.13,0,0,1-1.54.13h-.13a3.51,3.51,0,0,1-2.57-5.26l.52-.9.51-.9,2.05-3.46,2.06,3.46.51.9.51.9A3.66,3.66,0,0,1,249.12,179.54Z"/><path class="cls-1" d="M53,179.54a3.12,3.12,0,0,1-1.54.13h-.13a3.51,3.51,0,0,1-2.56-5.26l.51-.9.51-.9,2.06-3.46,2.05,3.46.51.9.51.9A3.66,3.66,0,0,1,53,179.54Z"/></svg>